<svg xmlns="http://www.w3.org/2000/svg" xmlns:xlink="http://www.w3.org/1999/xlink" width="500" zoomAndPan="magnify" viewBox="0 0 375 374.999991" height="500" preserveAspectRatio="xMidYMid meet" version="1.0"><defs><clipPath id="40f07b0386"><path d="M 75 61 L 301 61 L 301 310 L 75 310 Z M 75 61 " clip-rule="nonzero"/></clipPath><clipPath id="957be606c2"><path d="M 53.804688 79.917969 L 279.539062 42.914062 L 320.910156 295.296875 L 95.171875 332.296875 Z M 53.804688 79.917969 " clip-rule="nonzero"/></clipPath><clipPath id="b3acb5f4dc"><path d="M 53.804688 79.917969 L 279.539062 42.914062 L 320.910156 295.296875 L 95.171875 332.296875 Z M 53.804688 79.917969 " clip-rule="nonzero"/></clipPath><clipPath id="0ab866b799"><path d="M 128 74 L 161 74 L 161 116 L 128 116 Z M 128 74 " clip-rule="nonzero"/></clipPath><clipPath id="c4c4e78592"><path d="M 53.804688 79.917969 L 279.539062 42.914062 L 320.910156 295.296875 L 95.171875 332.296875 Z M 53.804688 79.917969 " clip-rule="nonzero"/></clipPath><clipPath id="4919069ff1"><path d="M 53.804688 79.917969 L 279.539062 42.914062 L 320.910156 295.296875 L 95.171875 332.296875 Z M 53.804688 79.917969 " clip-rule="nonzero"/></clipPath></defs><g clip-path="url(#40f07b0386)"><g clip-path="url(#957be606c2)"><g clip-path="url(#b3acb5f4dc)"><path fill="#38b6ff" d="M 251.414062 118.058594 L 243.867188 120.210938 L 278.925781 137.570312 C 274.878906 139.203125 270.339844 138.394531 266.144531 139.347656 C 265.265625 139.546875 264.355469 139.199219 264.820312 140.480469 L 300.652344 170.359375 C 285.722656 196.65625 269.449219 222.238281 254.582031 248.5625 C 243.910156 267.46875 232.445312 287.203125 232.355469 309.636719 C 221.675781 302.476562 214.0625 291.648438 208.664062 280.089844 L 207.75 287.515625 L 208.132812 295.371094 C 199.144531 288.445312 193.75 277.496094 191.25 266.53125 C 189.808594 266.453125 190.328125 266.878906 190.050781 267.511719 C 188.609375 270.777344 188.996094 275.242188 187.085938 278.152344 L 181.941406 265.308594 C 177.9375 253.417969 180.117188 235.296875 169.035156 227.292969 C 155.03125 217.175781 131.039062 232.460938 116.144531 234.816406 C 111.375 233.988281 107.652344 230.992188 103.496094 229.101562 C 93.6875 224.644531 86.988281 222.484375 79.113281 214.328125 C 77.960938 213.136719 74.082031 209.734375 75.261719 208.042969 C 83.28125 201.679688 91.242188 195.183594 99.011719 188.519531 C 103.671875 184.523438 116.675781 174.542969 119.585938 170.398438 C 122.585938 166.128906 120.851562 156.550781 121.472656 151.382812 C 121.960938 147.328125 129.464844 138.65625 132.347656 135.171875 C 141.773438 123.761719 152.117188 112.800781 165.144531 105.457031 L 166.753906 61.429688 C 167.699219 61.105469 168.417969 61.640625 169.222656 61.988281 C 172.78125 63.539062 177.925781 66.914062 181.382812 69.054688 C 196.664062 78.515625 210.917969 88.054688 218.867188 104.847656 C 229.761719 109.015625 241.285156 112.21875 251.410156 118.0625 Z M 199.617188 124.726562 C 198.636719 116.789062 198.433594 106.09375 194.960938 98.859375 C 192.859375 94.472656 186.5 87.839844 182.699219 84.667969 C 181.761719 83.886719 175.976562 79.386719 175.289062 80.089844 C 174.015625 86.175781 170.984375 104.003906 173.484375 109.136719 C 173.96875 110.132812 183.214844 116.3125 183.5625 115.8125 L 186.359375 103.203125 C 188.34375 107.867188 188.671875 115.734375 191.382812 119.839844 C 192.011719 120.796875 196.425781 123.457031 197.695312 124.140625 C 198.363281 124.503906 198.636719 125.164062 199.617188 124.730469 Z M 154.460938 157.066406 C 151.164062 157.320312 143.808594 155.863281 141.191406 157.710938 C 140.421875 158.253906 136.347656 168.097656 136.882812 168.449219 L 148.285156 163.847656 Z M 154.460938 157.066406 " fill-opacity="1" fill-rule="nonzero"/></g></g></g><g clip-path="url(#0ab866b799)"><g clip-path="url(#c4c4e78592)"><g clip-path="url(#4919069ff1)"><path fill="#38b6ff" d="M 141.660156 115.996094 C 138.601562 104.601562 133.324219 93.550781 130.121094 82.246094 C 129.78125 81.054688 127.84375 75.1875 129.140625 74.898438 L 160.28125 93.257812 L 159.390625 101.835938 C 152.875 105.800781 147.328125 110.980469 141.660156 115.992188 Z M 141.660156 115.996094 " fill-opacity="1" fill-rule="nonzero"/></g></g></g></svg>