<svg xmlns="http://www.w3.org/2000/svg" xmlns:xlink="http://www.w3.org/1999/xlink" width="500" zoomAndPan="magnify" viewBox="0 0 375 374.999991" height="500" preserveAspectRatio="xMidYMid meet" version="1.0"><defs><g/><clipPath id="3bab070b9b"><path d="M 82 113 L 215 113 L 215 260 L 82 260 Z M 82 113 " clip-rule="nonzero"/></clipPath><clipPath id="0772d4e6e3"><path d="M 70.105469 124.359375 L 202.585938 102.644531 L 226.851562 250.667969 L 94.367188 272.386719 Z M 70.105469 124.359375 " clip-rule="nonzero"/></clipPath><clipPath id="9d0a791807"><path d="M 70.105469 124.359375 L 202.585938 102.644531 L 226.851562 250.667969 L 94.367188 272.386719 Z M 70.105469 124.359375 " clip-rule="nonzero"/></clipPath><clipPath id="b445590eec"><path d="M 114 121 L 133 121 L 133 146 L 114 146 Z M 114 121 " clip-rule="nonzero"/></clipPath><clipPath id="6627dc253c"><path d="M 70.105469 124.359375 L 202.585938 102.644531 L 226.851562 250.667969 L 94.367188 272.386719 Z M 70.105469 124.359375 " clip-rule="nonzero"/></clipPath><clipPath id="72fea871b3"><path d="M 70.105469 124.359375 L 202.585938 102.644531 L 226.851562 250.667969 L 94.367188 272.386719 Z M 70.105469 124.359375 " clip-rule="nonzero"/></clipPath><clipPath id="2f417f046f"><rect x="0" width="30" y="0" height="43"/></clipPath></defs><g clip-path="url(#3bab070b9b)"><g clip-path="url(#0772d4e6e3)"><g clip-path="url(#9d0a791807)"><path fill="#38b6ff" d="M 186.082031 146.746094 L 181.652344 148.011719 L 202.230469 158.199219 C 199.855469 159.15625 197.191406 158.683594 194.730469 159.242188 C 194.210938 159.359375 193.675781 159.15625 193.949219 159.90625 L 214.980469 177.445312 C 206.21875 192.878906 196.667969 207.890625 187.941406 223.339844 C 181.679688 234.4375 174.949219 246.019531 174.894531 259.1875 C 168.628906 254.984375 164.160156 248.628906 160.992188 241.847656 L 160.457031 246.203125 L 160.679688 250.8125 C 155.40625 246.75 152.238281 240.324219 150.769531 233.886719 C 149.925781 233.84375 150.230469 234.089844 150.066406 234.460938 C 149.222656 236.378906 149.449219 239 148.328125 240.707031 L 145.308594 233.171875 C 142.960938 226.191406 144.238281 215.554688 137.734375 210.859375 C 129.515625 204.921875 115.433594 213.890625 106.691406 215.273438 C 103.894531 214.789062 101.707031 213.03125 99.269531 211.921875 C 93.511719 209.304688 89.578125 208.035156 84.957031 203.25 C 84.28125 202.546875 82.003906 200.554688 82.695312 199.5625 C 87.40625 195.828125 92.074219 192.011719 96.636719 188.101562 C 99.371094 185.757812 107.003906 179.898438 108.710938 177.464844 C 110.472656 174.960938 109.453125 169.339844 109.816406 166.304688 C 110.105469 163.925781 114.511719 158.835938 116.199219 156.789062 C 121.734375 150.09375 127.804688 143.664062 135.449219 139.351562 L 136.394531 113.511719 C 136.949219 113.320312 137.371094 113.636719 137.84375 113.839844 C 139.933594 114.75 142.953125 116.730469 144.980469 117.984375 C 153.949219 123.539062 162.316406 129.136719 166.980469 138.992188 C 173.375 141.4375 180.136719 143.320312 186.082031 146.75 Z M 155.683594 150.660156 C 155.109375 146.003906 154.988281 139.726562 152.949219 135.476562 C 151.714844 132.902344 147.984375 129.011719 145.753906 127.148438 C 145.203125 126.691406 141.808594 124.050781 141.402344 124.460938 C 140.65625 128.035156 138.875 138.5 140.34375 141.511719 C 140.628906 142.09375 146.054688 145.722656 146.261719 145.429688 L 147.902344 138.027344 C 149.066406 140.765625 149.257812 145.382812 150.851562 147.792969 C 151.21875 148.351562 153.808594 149.914062 154.554688 150.316406 C 154.949219 150.53125 155.109375 150.917969 155.683594 150.664062 Z M 129.179688 169.640625 C 127.242188 169.789062 122.929688 168.933594 121.394531 170.019531 C 120.941406 170.339844 118.550781 176.117188 118.863281 176.320312 L 125.554688 173.621094 Z M 129.179688 169.640625 " fill-opacity="1" fill-rule="nonzero"/></g></g></g><g clip-path="url(#b445590eec)"><g clip-path="url(#6627dc253c)"><g clip-path="url(#72fea871b3)"><path fill="#38b6ff" d="M 121.667969 145.535156 C 119.871094 138.847656 116.773438 132.363281 114.894531 125.726562 C 114.695312 125.027344 113.558594 121.585938 114.316406 121.417969 L 132.597656 132.191406 L 132.074219 137.226562 C 128.25 139.554688 124.996094 142.59375 121.667969 145.535156 Z M 121.667969 145.535156 " fill-opacity="1" fill-rule="nonzero"/></g></g></g><g fill="#38b6ff" fill-opacity="1"><g transform="translate(210.049108, 218.411748)"><g><path d="M 1.59375 -13.6875 C 1.59375 -14.1875 1.59375 -14.679688 1.59375 -15.171875 C 1.59375 -15.671875 1.59375 -16.175781 1.59375 -16.6875 C 1.59375 -17.03125 1.597656 -17.367188 1.609375 -17.703125 C 1.628906 -18.035156 1.640625 -18.375 1.640625 -18.71875 C 1.640625 -19.84375 1.628906 -20.96875 1.609375 -22.09375 C 1.597656 -23.226562 1.59375 -24.359375 1.59375 -25.484375 C 1.59375 -25.910156 1.632812 -26.296875 1.71875 -26.640625 C 1.851562 -27.171875 2.144531 -27.582031 2.59375 -27.875 C 2.78125 -27.988281 2.972656 -28.054688 3.171875 -28.078125 C 3.378906 -28.109375 3.578125 -28.132812 3.765625 -28.15625 C 4.535156 -28.207031 5.289062 -28.242188 6.03125 -28.265625 C 6.78125 -28.296875 7.53125 -28.3125 8.28125 -28.3125 C 9 -28.3125 9.710938 -28.3125 10.421875 -28.3125 C 11.128906 -28.3125 11.84375 -28.3125 12.5625 -28.3125 C 12.851562 -28.3125 13.15625 -28.3125 13.46875 -28.3125 C 13.789062 -28.3125 14.101562 -28.3125 14.40625 -28.3125 C 14.71875 -28.3125 14.984375 -28.257812 15.203125 -28.15625 C 15.867188 -27.84375 16.203125 -27.335938 16.203125 -26.640625 C 16.203125 -26.242188 16.191406 -25.84375 16.171875 -25.4375 C 16.160156 -25.039062 16.15625 -24.640625 16.15625 -24.234375 C 16.132812 -24.179688 16.128906 -24.117188 16.140625 -24.046875 C 16.148438 -23.984375 16.144531 -23.914062 16.125 -23.84375 C 16.09375 -23.738281 16.054688 -23.625 16.015625 -23.5 C 15.972656 -23.375 15.925781 -23.257812 15.875 -23.15625 C 15.820312 -22.96875 15.722656 -22.84375 15.578125 -22.78125 C 15.429688 -22.71875 15.265625 -22.671875 15.078125 -22.640625 C 14.941406 -22.640625 14.796875 -22.628906 14.640625 -22.609375 C 14.484375 -22.597656 14.335938 -22.609375 14.203125 -22.640625 C 13.609375 -22.671875 13.007812 -22.671875 12.40625 -22.640625 C 11.8125 -22.609375 11.207031 -22.566406 10.59375 -22.515625 C 10.351562 -22.492188 10.117188 -22.488281 9.890625 -22.5 C 9.671875 -22.507812 9.441406 -22.503906 9.203125 -22.484375 C 9.066406 -22.484375 8.914062 -22.484375 8.75 -22.484375 C 8.59375 -22.484375 8.445312 -22.46875 8.3125 -22.4375 C 8.050781 -22.414062 7.878906 -22.285156 7.796875 -22.046875 C 7.640625 -21.722656 7.5625 -21.390625 7.5625 -21.046875 C 7.582031 -20.535156 7.59375 -20.03125 7.59375 -19.53125 C 7.59375 -19.039062 7.59375 -18.546875 7.59375 -18.046875 C 7.59375 -17.910156 7.625 -17.785156 7.6875 -17.671875 C 7.757812 -17.566406 7.835938 -17.445312 7.921875 -17.3125 C 8.054688 -17.1875 8.1875 -17.125 8.3125 -17.125 C 8.613281 -17.144531 8.910156 -17.15625 9.203125 -17.15625 C 9.492188 -17.15625 9.773438 -17.171875 10.046875 -17.203125 C 10.097656 -17.203125 10.15625 -17.207031 10.21875 -17.21875 C 10.28125 -17.226562 10.34375 -17.234375 10.40625 -17.234375 C 10.9375 -17.210938 11.472656 -17.203125 12.015625 -17.203125 C 12.566406 -17.203125 13.109375 -17.1875 13.640625 -17.15625 C 14.253906 -17.15625 14.5625 -16.847656 14.5625 -16.234375 C 14.582031 -15.804688 14.59375 -15.378906 14.59375 -14.953125 C 14.59375 -14.523438 14.59375 -14.085938 14.59375 -13.640625 C 14.59375 -13.503906 14.582031 -13.394531 14.5625 -13.3125 C 14.507812 -12.78125 14.203125 -12.476562 13.640625 -12.40625 C 13.296875 -12.34375 12.957031 -12.304688 12.625 -12.296875 C 12.289062 -12.285156 11.945312 -12.289062 11.59375 -12.3125 C 11.09375 -12.34375 10.570312 -12.347656 10.03125 -12.328125 C 9.5 -12.316406 8.96875 -12.3125 8.4375 -12.3125 C 8.113281 -12.3125 7.847656 -12.164062 7.640625 -11.875 C 7.421875 -11.582031 7.3125 -11.273438 7.3125 -10.953125 C 7.289062 -10.523438 7.28125 -10.09375 7.28125 -9.65625 C 7.28125 -9.21875 7.28125 -8.769531 7.28125 -8.3125 C 7.28125 -7.40625 7.285156 -6.503906 7.296875 -5.609375 C 7.304688 -4.722656 7.3125 -3.828125 7.3125 -2.921875 C 7.3125 -2.597656 7.304688 -2.269531 7.296875 -1.9375 C 7.285156 -1.601562 7.253906 -1.265625 7.203125 -0.921875 C 7.148438 -0.703125 7.109375 -0.554688 7.078125 -0.484375 C 6.972656 -0.109375 6.707031 0.101562 6.28125 0.15625 C 5.988281 0.15625 5.691406 0.15625 5.390625 0.15625 C 5.097656 0.15625 4.804688 0.144531 4.515625 0.125 C 4.253906 0.125 3.984375 0.113281 3.703125 0.09375 C 3.421875 0.0820312 3.132812 0.078125 2.84375 0.078125 C 2.519531 0.078125 2.253906 -0.0820312 2.046875 -0.40625 C 1.773438 -0.75 1.640625 -1.175781 1.640625 -1.6875 C 1.640625 -1.945312 1.640625 -2.207031 1.640625 -2.46875 C 1.640625 -2.738281 1.640625 -3.007812 1.640625 -3.28125 C 1.640625 -3.601562 1.628906 -3.921875 1.609375 -4.234375 C 1.597656 -4.554688 1.59375 -4.878906 1.59375 -5.203125 C 1.59375 -6.609375 1.59375 -8.019531 1.59375 -9.4375 C 1.59375 -10.851562 1.59375 -12.269531 1.59375 -13.6875 Z M 1.59375 -13.6875 "/></g></g></g><g fill="#38b6ff" fill-opacity="1"><g transform="translate(227.327396, 218.411748)"><g><path d="M 16.15625 0.515625 C 15.519531 0.515625 15.082031 0.238281 14.84375 -0.3125 C 14.65625 -0.664062 14.492188 -1.019531 14.359375 -1.375 C 14.222656 -1.738281 14.128906 -2.109375 14.078125 -2.484375 C 13.921875 -3.066406 13.5625 -3.332031 13 -3.28125 C 12.789062 -3.28125 12.5625 -3.269531 12.3125 -3.25 C 12.070312 -3.238281 11.847656 -3.234375 11.640625 -3.234375 C 11.296875 -3.210938 10.941406 -3.1875 10.578125 -3.15625 C 10.222656 -3.132812 9.859375 -3.109375 9.484375 -3.078125 C 9.128906 -3.078125 8.796875 -3.035156 8.484375 -2.953125 C 8.003906 -2.847656 7.679688 -2.570312 7.515625 -2.125 C 7.441406 -1.882812 7.359375 -1.644531 7.265625 -1.40625 C 7.171875 -1.164062 7.082031 -0.910156 7 -0.640625 C 6.894531 -0.367188 6.738281 -0.179688 6.53125 -0.078125 C 6.332031 0.0234375 6.101562 0.101562 5.84375 0.15625 C 5.757812 0.15625 5.675781 0.15625 5.59375 0.15625 C 5.519531 0.15625 5.441406 0.15625 5.359375 0.15625 C 4.847656 0.1875 4.335938 0.207031 3.828125 0.21875 C 3.328125 0.226562 2.820312 0.25 2.3125 0.28125 C 2.101562 0.300781 1.894531 0.234375 1.6875 0.078125 C 1.65625 0.0546875 1.628906 0.0351562 1.609375 0.015625 C 1.597656 0.00390625 1.582031 -0.015625 1.5625 -0.046875 C 0.945312 -0.492188 0.742188 -1.101562 0.953125 -1.875 C 1.140625 -2.488281 1.328125 -3.101562 1.515625 -3.71875 C 1.703125 -4.332031 1.890625 -4.945312 2.078125 -5.5625 C 2.210938 -5.9375 2.316406 -6.316406 2.390625 -6.703125 C 2.472656 -7.085938 2.554688 -7.476562 2.640625 -7.875 C 2.722656 -8.332031 2.8125 -8.785156 2.90625 -9.234375 C 3 -9.691406 3.097656 -10.132812 3.203125 -10.5625 C 3.460938 -11.488281 3.734375 -12.429688 4.015625 -13.390625 C 4.296875 -14.359375 4.570312 -15.304688 4.84375 -16.234375 C 5.050781 -16.929688 5.253906 -17.625 5.453125 -18.3125 C 5.660156 -19.007812 5.859375 -19.707031 6.046875 -20.40625 C 6.171875 -20.851562 6.304688 -21.296875 6.453125 -21.734375 C 6.609375 -22.179688 6.738281 -22.628906 6.84375 -23.078125 C 6.976562 -23.554688 7.097656 -24.035156 7.203125 -24.515625 C 7.304688 -24.992188 7.410156 -25.472656 7.515625 -25.953125 C 7.679688 -26.679688 8.070312 -27.191406 8.6875 -27.484375 C 8.789062 -27.535156 8.894531 -27.5625 9 -27.5625 C 9.457031 -27.5625 9.890625 -27.597656 10.296875 -27.671875 C 10.710938 -27.753906 11.132812 -27.8125 11.5625 -27.84375 C 12.007812 -27.914062 12.472656 -27.875 12.953125 -27.71875 C 13.566406 -27.507812 13.941406 -27.109375 14.078125 -26.515625 C 14.179688 -26.085938 14.289062 -25.675781 14.40625 -25.28125 C 14.53125 -24.882812 14.632812 -24.457031 14.71875 -24 C 14.851562 -23.25 15.023438 -22.5 15.234375 -21.75 C 15.453125 -21.007812 15.679688 -20.28125 15.921875 -19.5625 C 16.128906 -18.976562 16.3125 -18.382812 16.46875 -17.78125 C 16.632812 -17.175781 16.796875 -16.566406 16.953125 -15.953125 C 17.222656 -14.992188 17.484375 -14.023438 17.734375 -13.046875 C 17.992188 -12.078125 18.253906 -11.113281 18.515625 -10.15625 C 18.628906 -9.726562 18.738281 -9.296875 18.84375 -8.859375 C 18.945312 -8.421875 19.050781 -7.988281 19.15625 -7.5625 C 19.257812 -7.132812 19.34375 -6.695312 19.40625 -6.25 C 19.476562 -5.8125 19.570312 -5.378906 19.6875 -4.953125 C 19.738281 -4.710938 19.796875 -4.472656 19.859375 -4.234375 C 19.921875 -3.992188 19.96875 -3.769531 20 -3.5625 C 20.082031 -3.21875 20.160156 -2.882812 20.234375 -2.5625 C 20.316406 -2.238281 20.382812 -1.914062 20.4375 -1.59375 C 20.488281 -1.332031 20.488281 -1.085938 20.4375 -0.859375 C 20.382812 -0.628906 20.304688 -0.410156 20.203125 -0.203125 C 20.117188 -0.0664062 19.972656 0.0234375 19.765625 0.078125 C 19.492188 0.109375 19.226562 0.148438 18.96875 0.203125 C 18.71875 0.253906 18.460938 0.304688 18.203125 0.359375 C 18.171875 0.359375 18.128906 0.359375 18.078125 0.359375 C 18.023438 0.359375 17.972656 0.359375 17.921875 0.359375 C 17.648438 0.390625 17.378906 0.414062 17.109375 0.4375 C 16.847656 0.46875 16.570312 0.492188 16.28125 0.515625 C 16.25 0.515625 16.21875 0.515625 16.1875 0.515625 C 16.164062 0.515625 16.15625 0.515625 16.15625 0.515625 Z M 10.203125 -9.515625 C 10.203125 -9.492188 10.203125 -9.484375 10.203125 -9.484375 C 10.335938 -9.503906 10.476562 -9.515625 10.625 -9.515625 C 10.769531 -9.515625 10.910156 -9.53125 11.046875 -9.5625 C 11.222656 -9.5625 11.40625 -9.566406 11.59375 -9.578125 C 11.78125 -9.585938 11.96875 -9.609375 12.15625 -9.640625 C 12.375 -9.640625 12.519531 -9.742188 12.59375 -9.953125 C 12.707031 -10.140625 12.738281 -10.367188 12.6875 -10.640625 C 12.65625 -10.773438 12.617188 -10.894531 12.578125 -11 C 12.535156 -11.101562 12.503906 -11.207031 12.484375 -11.3125 C 12.367188 -11.769531 12.265625 -12.210938 12.171875 -12.640625 C 12.085938 -13.066406 11.960938 -13.476562 11.796875 -13.875 C 11.691406 -14.25 11.578125 -14.625 11.453125 -15 C 11.335938 -15.375 11.210938 -15.734375 11.078125 -16.078125 C 11.023438 -16.179688 10.984375 -16.25 10.953125 -16.28125 C 10.828125 -16.46875 10.679688 -16.46875 10.515625 -16.28125 C 10.492188 -16.226562 10.46875 -16.160156 10.4375 -16.078125 C 10.414062 -15.992188 10.390625 -15.914062 10.359375 -15.84375 C 10.203125 -15.070312 10.039062 -14.289062 9.875 -13.5 C 9.71875 -12.707031 9.5625 -11.925781 9.40625 -11.15625 C 9.320312 -10.8125 9.28125 -10.453125 9.28125 -10.078125 C 9.226562 -9.703125 9.414062 -9.515625 9.84375 -9.515625 C 9.894531 -9.492188 9.953125 -9.488281 10.015625 -9.5 C 10.085938 -9.507812 10.148438 -9.515625 10.203125 -9.515625 Z M 10.203125 -9.515625 "/></g></g></g><g fill="#38b6ff" fill-opacity="1"><g transform="translate(249.365202, 218.411748)"><g><path d="M 1.59375 -13.6875 C 1.59375 -15.144531 1.59375 -16.628906 1.59375 -18.140625 C 1.59375 -19.648438 1.59375 -21.148438 1.59375 -22.640625 C 1.59375 -23.035156 1.59375 -23.425781 1.59375 -23.8125 C 1.59375 -24.207031 1.59375 -24.601562 1.59375 -25 C 1.59375 -25.207031 1.597656 -25.414062 1.609375 -25.625 C 1.628906 -25.84375 1.65625 -26.046875 1.6875 -26.234375 C 1.707031 -26.472656 1.765625 -26.695312 1.859375 -26.90625 C 1.953125 -27.125 2.050781 -27.328125 2.15625 -27.515625 C 2.238281 -27.679688 2.359375 -27.796875 2.515625 -27.859375 C 2.679688 -27.921875 2.84375 -27.96875 3 -28 C 3.1875 -28.03125 3.359375 -28.050781 3.515625 -28.0625 C 3.679688 -28.070312 3.859375 -28.078125 4.046875 -28.078125 C 4.410156 -28.054688 4.757812 -28.007812 5.09375 -27.9375 C 5.425781 -27.875 5.769531 -27.773438 6.125 -27.640625 C 6.414062 -27.503906 6.613281 -27.316406 6.71875 -27.078125 C 6.800781 -26.921875 6.878906 -26.753906 6.953125 -26.578125 C 7.035156 -26.398438 7.117188 -26.222656 7.203125 -26.046875 C 7.410156 -25.585938 7.617188 -25.109375 7.828125 -24.609375 C 8.046875 -24.117188 8.273438 -23.648438 8.515625 -23.203125 C 9.265625 -21.648438 10.039062 -20.101562 10.84375 -18.5625 C 11.101562 -18.050781 11.367188 -17.546875 11.640625 -17.046875 C 11.910156 -16.554688 12.175781 -16.070312 12.4375 -15.59375 C 12.65625 -15.25 12.84375 -14.90625 13 -14.5625 C 13.15625 -14.21875 13.328125 -13.867188 13.515625 -13.515625 C 13.566406 -13.460938 13.59375 -13.425781 13.59375 -13.40625 C 13.78125 -13.21875 13.941406 -13.132812 14.078125 -13.15625 C 14.347656 -13.207031 14.492188 -13.34375 14.515625 -13.5625 C 14.546875 -13.644531 14.570312 -13.722656 14.59375 -13.796875 C 14.625 -13.878906 14.640625 -13.972656 14.640625 -14.078125 C 14.609375 -15.273438 14.59375 -16.472656 14.59375 -17.671875 C 14.59375 -18.878906 14.582031 -20.082031 14.5625 -21.28125 C 14.53125 -21.707031 14.5 -22.125 14.46875 -22.53125 C 14.445312 -22.945312 14.425781 -23.367188 14.40625 -23.796875 C 14.40625 -24.066406 14.40625 -24.320312 14.40625 -24.5625 C 14.40625 -24.800781 14.414062 -25.050781 14.4375 -25.3125 C 14.4375 -25.445312 14.4375 -25.585938 14.4375 -25.734375 C 14.4375 -25.878906 14.4375 -26.019531 14.4375 -26.15625 C 14.4375 -26.425781 14.484375 -26.6875 14.578125 -26.9375 C 14.671875 -27.1875 14.769531 -27.421875 14.875 -27.640625 C 15.113281 -28.015625 15.421875 -28.1875 15.796875 -28.15625 C 16.140625 -28.132812 16.476562 -28.125 16.8125 -28.125 C 17.144531 -28.125 17.472656 -28.109375 17.796875 -28.078125 C 18.171875 -28.054688 18.515625 -27.894531 18.828125 -27.59375 C 19.148438 -27.300781 19.3125 -26.929688 19.3125 -26.484375 C 19.34375 -25.953125 19.367188 -25.414062 19.390625 -24.875 C 19.421875 -24.34375 19.453125 -23.8125 19.484375 -23.28125 C 19.535156 -22.769531 19.566406 -22.253906 19.578125 -21.734375 C 19.585938 -21.210938 19.609375 -20.6875 19.640625 -20.15625 C 19.640625 -18.101562 19.640625 -16.039062 19.640625 -13.96875 C 19.640625 -11.90625 19.65625 -9.835938 19.6875 -7.765625 C 19.6875 -6.960938 19.703125 -6.15625 19.734375 -5.34375 C 19.773438 -4.53125 19.8125 -3.722656 19.84375 -2.921875 C 19.84375 -2.648438 19.816406 -2.375 19.765625 -2.09375 C 19.710938 -1.820312 19.65625 -1.535156 19.59375 -1.234375 C 19.539062 -1.078125 19.460938 -0.945312 19.359375 -0.84375 C 19.015625 -0.332031 18.578125 -0.0351562 18.046875 0.046875 C 17.804688 0.0664062 17.5625 0.0820312 17.3125 0.09375 C 17.070312 0.113281 16.847656 0.0820312 16.640625 0 C 16.160156 -0.101562 15.75 -0.367188 15.40625 -0.796875 C 15.21875 -1.035156 15.019531 -1.28125 14.8125 -1.53125 C 14.613281 -1.789062 14.421875 -2.039062 14.234375 -2.28125 C 14.023438 -2.570312 13.8125 -2.863281 13.59375 -3.15625 C 13.382812 -3.445312 13.1875 -3.726562 13 -4 C 12.863281 -4.207031 12.734375 -4.425781 12.609375 -4.65625 C 12.492188 -4.882812 12.367188 -5.09375 12.234375 -5.28125 C 11.972656 -5.707031 11.703125 -6.117188 11.421875 -6.515625 C 11.140625 -6.921875 10.863281 -7.335938 10.59375 -7.765625 C 10.25 -8.316406 9.910156 -8.878906 9.578125 -9.453125 C 9.242188 -10.023438 8.90625 -10.59375 8.5625 -11.15625 C 8.394531 -11.445312 8.222656 -11.742188 8.046875 -12.046875 C 7.878906 -12.359375 7.703125 -12.648438 7.515625 -12.921875 C 7.378906 -13.128906 7.222656 -13.234375 7.046875 -13.234375 C 6.828125 -13.234375 6.707031 -13.15625 6.6875 -13 C 6.6875 -12.945312 6.6875 -12.894531 6.6875 -12.84375 C 6.6875 -12.789062 6.6875 -12.738281 6.6875 -12.6875 C 6.65625 -11.90625 6.640625 -11.113281 6.640625 -10.3125 C 6.640625 -9.519531 6.625 -8.734375 6.59375 -7.953125 C 6.59375 -7.210938 6.585938 -6.46875 6.578125 -5.71875 C 6.566406 -4.96875 6.5625 -4.207031 6.5625 -3.4375 C 6.5625 -3.144531 6.566406 -2.84375 6.578125 -2.53125 C 6.585938 -2.226562 6.59375 -1.929688 6.59375 -1.640625 C 6.59375 -1.128906 6.460938 -0.660156 6.203125 -0.234375 C 6.171875 -0.160156 6.078125 -0.0664062 5.921875 0.046875 C 5.734375 0.0976562 5.554688 0.140625 5.390625 0.171875 C 5.234375 0.210938 5.0625 0.222656 4.875 0.203125 C 4.5625 0.171875 4.242188 0.15625 3.921875 0.15625 C 3.597656 0.15625 3.265625 0.15625 2.921875 0.15625 C 2.546875 0.15625 2.265625 -0.03125 2.078125 -0.40625 C 1.816406 -0.832031 1.6875 -1.335938 1.6875 -1.921875 C 1.6875 -2.429688 1.691406 -2.9375 1.703125 -3.4375 C 1.710938 -3.945312 1.71875 -4.453125 1.71875 -4.953125 C 1.71875 -6.046875 1.71875 -7.125 1.71875 -8.1875 C 1.71875 -9.257812 1.707031 -10.332031 1.6875 -11.40625 C 1.6875 -11.769531 1.675781 -12.140625 1.65625 -12.515625 C 1.644531 -12.890625 1.625 -13.28125 1.59375 -13.6875 Z M 1.59375 -13.6875 "/></g></g></g><g fill="#38b6ff" fill-opacity="1"><g transform="translate(271.243032, 218.411748)"><g><path d="M 19.921875 -7 C 19.890625 -6.0625 19.867188 -5.132812 19.859375 -4.21875 C 19.847656 -3.300781 19.84375 -2.375 19.84375 -1.4375 C 19.84375 -1.226562 19.804688 -1.019531 19.734375 -0.8125 C 19.671875 -0.613281 19.585938 -0.410156 19.484375 -0.203125 C 19.367188 -0.015625 19.164062 0.101562 18.875 0.15625 C 18.34375 0.15625 17.796875 0.164062 17.234375 0.1875 C 16.679688 0.21875 16.125 0.234375 15.5625 0.234375 C 15.15625 0.285156 14.847656 0.164062 14.640625 -0.125 C 14.503906 -0.25 14.316406 -0.257812 14.078125 -0.15625 C 13.816406 -0.101562 13.554688 -0.03125 13.296875 0.0625 C 13.046875 0.15625 12.785156 0.226562 12.515625 0.28125 C 12.171875 0.382812 11.820312 0.46875 11.46875 0.53125 C 11.125 0.601562 10.769531 0.625 10.40625 0.59375 C 9.925781 0.539062 9.4375 0.488281 8.9375 0.4375 C 8.445312 0.382812 7.972656 0.304688 7.515625 0.203125 C 7.304688 0.148438 7.117188 0.0664062 6.953125 -0.046875 C 6.773438 -0.148438 6.578125 -0.253906 6.359375 -0.359375 C 6.148438 -0.460938 5.9375 -0.570312 5.71875 -0.6875 C 5.582031 -0.757812 5.453125 -0.851562 5.328125 -0.96875 C 5.210938 -1.09375 5.101562 -1.207031 5 -1.3125 C 4.8125 -1.53125 4.628906 -1.75 4.453125 -1.96875 C 4.285156 -2.195312 4.109375 -2.421875 3.921875 -2.640625 C 3.835938 -2.742188 3.75 -2.847656 3.65625 -2.953125 C 3.5625 -3.066406 3.460938 -3.175781 3.359375 -3.28125 C 3.171875 -3.570312 2.992188 -3.863281 2.828125 -4.15625 C 2.671875 -4.445312 2.554688 -4.769531 2.484375 -5.125 C 2.453125 -5.25 2.410156 -5.375 2.359375 -5.5 C 2.304688 -5.625 2.265625 -5.738281 2.234375 -5.84375 C 2.128906 -6.238281 2.050781 -6.640625 2 -7.046875 C 1.945312 -7.335938 1.898438 -7.632812 1.859375 -7.9375 C 1.816406 -8.25 1.769531 -8.550781 1.71875 -8.84375 C 1.664062 -9.269531 1.640625 -9.6875 1.640625 -10.09375 C 1.640625 -10.507812 1.640625 -10.929688 1.640625 -11.359375 C 1.640625 -11.992188 1.648438 -12.628906 1.671875 -13.265625 C 1.703125 -13.910156 1.734375 -14.554688 1.765625 -15.203125 C 1.785156 -15.816406 1.835938 -16.4375 1.921875 -17.0625 C 2.003906 -17.6875 2.097656 -18.289062 2.203125 -18.875 C 2.335938 -19.414062 2.476562 -19.957031 2.625 -20.5 C 2.769531 -21.039062 2.910156 -21.566406 3.046875 -22.078125 C 3.117188 -22.503906 3.300781 -22.90625 3.59375 -23.28125 C 3.707031 -23.414062 3.796875 -23.546875 3.859375 -23.671875 C 3.921875 -23.804688 3.984375 -23.941406 4.046875 -24.078125 C 4.097656 -24.234375 4.175781 -24.367188 4.28125 -24.484375 C 4.570312 -24.796875 4.863281 -25.113281 5.15625 -25.4375 C 5.445312 -25.757812 5.753906 -26.050781 6.078125 -26.3125 C 6.128906 -26.34375 6.164062 -26.367188 6.1875 -26.390625 C 6.21875 -26.421875 6.25 -26.453125 6.28125 -26.484375 C 6.625 -26.671875 6.945312 -26.847656 7.25 -27.015625 C 7.5625 -27.191406 7.890625 -27.375 8.234375 -27.5625 C 9.203125 -28.039062 10.21875 -28.320312 11.28125 -28.40625 C 11.414062 -28.40625 11.546875 -28.40625 11.671875 -28.40625 C 11.804688 -28.40625 11.941406 -28.40625 12.078125 -28.40625 C 12.234375 -28.40625 12.390625 -28.394531 12.546875 -28.375 C 12.710938 -28.363281 12.890625 -28.375 13.078125 -28.40625 C 13.367188 -28.425781 13.640625 -28.410156 13.890625 -28.359375 C 14.148438 -28.304688 14.414062 -28.253906 14.6875 -28.203125 C 14.894531 -28.171875 15.09375 -28.117188 15.28125 -28.046875 C 15.46875 -27.984375 15.640625 -27.890625 15.796875 -27.765625 C 15.929688 -27.679688 16.039062 -27.640625 16.125 -27.640625 C 16.195312 -27.609375 16.265625 -27.578125 16.328125 -27.546875 C 16.398438 -27.523438 16.476562 -27.488281 16.5625 -27.4375 C 16.769531 -27.332031 16.988281 -27.21875 17.21875 -27.09375 C 17.445312 -26.976562 17.664062 -26.851562 17.875 -26.71875 C 17.988281 -26.664062 18.054688 -26.613281 18.078125 -26.5625 C 18.316406 -26.269531 18.535156 -25.96875 18.734375 -25.65625 C 18.941406 -25.351562 19.082031 -25.015625 19.15625 -24.640625 C 19.257812 -24.242188 19.335938 -23.84375 19.390625 -23.4375 C 19.453125 -23.039062 19.492188 -22.640625 19.515625 -22.234375 C 19.546875 -21.921875 19.5625 -21.601562 19.5625 -21.28125 C 19.5625 -20.957031 19.570312 -20.648438 19.59375 -20.359375 C 19.59375 -20.253906 19.578125 -20.140625 19.546875 -20.015625 C 19.523438 -19.898438 19.503906 -19.773438 19.484375 -19.640625 C 19.429688 -19.367188 19.285156 -19.195312 19.046875 -19.125 C 18.859375 -19.039062 18.644531 -19 18.40625 -19 C 18.050781 -18.96875 17.707031 -18.9375 17.375 -18.90625 C 17.039062 -18.882812 16.703125 -18.847656 16.359375 -18.796875 C 15.960938 -18.796875 15.628906 -18.96875 15.359375 -19.3125 C 15.222656 -19.5 15.128906 -19.691406 15.078125 -19.890625 C 15.023438 -20.097656 14.984375 -20.296875 14.953125 -20.484375 C 14.929688 -20.671875 14.90625 -20.851562 14.875 -21.03125 C 14.851562 -21.21875 14.828125 -21.40625 14.796875 -21.59375 C 14.773438 -22.050781 14.601562 -22.441406 14.28125 -22.765625 C 14.226562 -22.785156 14.175781 -22.820312 14.125 -22.875 C 13.5625 -23.144531 13.023438 -23.289062 12.515625 -23.3125 C 12.085938 -23.34375 11.679688 -23.304688 11.296875 -23.203125 C 10.910156 -23.097656 10.53125 -22.960938 10.15625 -22.796875 C 9.726562 -22.609375 9.351562 -22.347656 9.03125 -22.015625 C 8.71875 -21.679688 8.441406 -21.328125 8.203125 -20.953125 C 7.960938 -20.609375 7.78125 -20.234375 7.65625 -19.828125 C 7.539062 -19.429688 7.414062 -19.035156 7.28125 -18.640625 C 7.195312 -18.367188 7.117188 -18.085938 7.046875 -17.796875 C 6.984375 -17.503906 6.925781 -17.210938 6.875 -16.921875 C 6.875 -16.835938 6.867188 -16.757812 6.859375 -16.6875 C 6.847656 -16.625 6.84375 -16.554688 6.84375 -16.484375 C 6.8125 -16.054688 6.789062 -15.628906 6.78125 -15.203125 C 6.769531 -14.773438 6.738281 -14.347656 6.6875 -13.921875 C 6.601562 -13.335938 6.550781 -12.75 6.53125 -12.15625 C 6.519531 -11.570312 6.53125 -10.972656 6.5625 -10.359375 C 6.5625 -9.828125 6.640625 -9.296875 6.796875 -8.765625 C 6.847656 -8.648438 6.878906 -8.539062 6.890625 -8.4375 C 6.910156 -8.332031 6.929688 -8.210938 6.953125 -8.078125 C 6.953125 -7.941406 6.96875 -7.847656 7 -7.796875 C 7.050781 -7.640625 7.109375 -7.476562 7.171875 -7.3125 C 7.242188 -7.15625 7.320312 -7.007812 7.40625 -6.875 C 7.476562 -6.75 7.5625 -6.609375 7.65625 -6.453125 C 7.75 -6.304688 7.835938 -6.171875 7.921875 -6.046875 C 8.128906 -5.691406 8.398438 -5.425781 8.734375 -5.25 C 9.066406 -5.082031 9.410156 -4.945312 9.765625 -4.84375 C 10.316406 -4.675781 10.859375 -4.617188 11.390625 -4.671875 C 11.929688 -4.734375 12.453125 -4.859375 12.953125 -5.046875 C 13.171875 -5.117188 13.359375 -5.222656 13.515625 -5.359375 C 13.679688 -5.492188 13.828125 -5.640625 13.953125 -5.796875 C 14.140625 -6.035156 14.257812 -6.296875 14.3125 -6.578125 C 14.375 -6.859375 14.414062 -7.132812 14.4375 -7.40625 C 14.4375 -7.53125 14.4375 -7.648438 14.4375 -7.765625 C 14.4375 -7.890625 14.425781 -8.007812 14.40625 -8.125 C 14.40625 -8.332031 14.363281 -8.519531 14.28125 -8.6875 C 14.144531 -8.976562 13.929688 -9.132812 13.640625 -9.15625 C 13.023438 -9.15625 12.4375 -9.195312 11.875 -9.28125 C 11.769531 -9.28125 11.675781 -9.285156 11.59375 -9.296875 C 11.519531 -9.304688 11.425781 -9.328125 11.3125 -9.359375 C 11.101562 -9.410156 11 -9.554688 11 -9.796875 C 10.96875 -10.273438 10.953125 -10.753906 10.953125 -11.234375 C 10.953125 -11.710938 10.953125 -12.195312 10.953125 -12.6875 C 10.953125 -12.8125 10.96875 -12.914062 11 -13 C 11.101562 -13.613281 11.476562 -13.972656 12.125 -14.078125 C 12.226562 -14.109375 12.332031 -14.125 12.4375 -14.125 C 12.539062 -14.125 12.648438 -14.132812 12.765625 -14.15625 C 13.265625 -14.207031 13.769531 -14.234375 14.28125 -14.234375 C 14.789062 -14.234375 15.296875 -14.234375 15.796875 -14.234375 C 16.117188 -14.234375 16.4375 -14.238281 16.75 -14.25 C 17.070312 -14.269531 17.410156 -14.289062 17.765625 -14.3125 C 18.054688 -14.3125 18.332031 -14.25 18.59375 -14.125 C 18.863281 -14.007812 19.117188 -13.863281 19.359375 -13.6875 C 19.679688 -13.414062 19.84375 -13.039062 19.84375 -12.5625 C 19.84375 -12.132812 19.84375 -11.707031 19.84375 -11.28125 C 19.84375 -10.851562 19.84375 -10.410156 19.84375 -9.953125 C 19.84375 -9.453125 19.84375 -8.953125 19.84375 -8.453125 C 19.84375 -7.960938 19.84375 -7.476562 19.84375 -7 C 19.863281 -7 19.875 -7 19.875 -7 C 19.875 -7 19.890625 -7 19.921875 -7 Z M 19.921875 -7 "/></g></g></g><g fill="#38b6ff" fill-opacity="1"><g transform="translate(292.970977, 218.411748)"><g/></g></g><g transform="matrix(1, 0, 0, 1, 208, 217)"><g clip-path="url(#2f417f046f)"><g fill="#38b6ff" fill-opacity="1"><g transform="translate(0.717176, 32.038217)"><g><path d="M 10.046875 -13.0625 C 10.046875 -12.488281 10.046875 -11.828125 10.046875 -11.078125 C 10.046875 -10.328125 10.046875 -9.554688 10.046875 -8.765625 C 10.046875 -8.171875 10.035156 -7.570312 10.015625 -6.96875 C 9.992188 -6.375 9.984375 -5.769531 9.984375 -5.15625 C 9.984375 -4.800781 9.941406 -4.453125 9.859375 -4.109375 C 9.785156 -3.773438 9.695312 -3.429688 9.59375 -3.078125 C 9.519531 -2.921875 9.457031 -2.753906 9.40625 -2.578125 C 9.351562 -2.398438 9.28125 -2.222656 9.1875 -2.046875 C 8.6875 -0.941406 7.816406 -0.257812 6.578125 0 C 6.160156 0.113281 5.75 0.1875 5.34375 0.21875 C 4.9375 0.25 4.519531 0.265625 4.09375 0.265625 C 3.875 0.265625 3.65625 0.265625 3.4375 0.265625 C 3.21875 0.265625 3 0.265625 2.78125 0.265625 C 2.5625 0.242188 2.359375 0.1875 2.171875 0.09375 C 1.984375 0.0078125 1.800781 -0.0859375 1.625 -0.203125 C 1.488281 -0.304688 1.40625 -0.429688 1.375 -0.578125 C 1.34375 -0.722656 1.328125 -0.875 1.328125 -1.03125 C 1.328125 -1.269531 1.332031 -1.515625 1.34375 -1.765625 C 1.351562 -2.023438 1.359375 -2.285156 1.359375 -2.546875 C 1.359375 -2.785156 1.425781 -3.007812 1.5625 -3.21875 C 1.707031 -3.425781 1.914062 -3.554688 2.1875 -3.609375 C 2.3125 -3.648438 2.445312 -3.671875 2.59375 -3.671875 C 2.738281 -3.671875 2.878906 -3.679688 3.015625 -3.703125 C 3.234375 -3.722656 3.445312 -3.734375 3.65625 -3.734375 C 3.863281 -3.734375 4.078125 -3.742188 4.296875 -3.765625 C 4.535156 -3.785156 4.757812 -3.847656 4.96875 -3.953125 C 5.1875 -4.066406 5.394531 -4.203125 5.59375 -4.359375 C 5.632812 -4.410156 5.671875 -4.457031 5.703125 -4.5 C 5.734375 -4.539062 5.757812 -4.59375 5.78125 -4.65625 C 5.832031 -4.8125 5.878906 -4.960938 5.921875 -5.109375 C 5.960938 -5.253906 5.992188 -5.398438 6.015625 -5.546875 C 6.078125 -5.992188 6.109375 -6.445312 6.109375 -6.90625 C 6.109375 -7.375 6.097656 -7.828125 6.078125 -8.265625 C 6.054688 -8.578125 6.050781 -8.882812 6.0625 -9.1875 C 6.070312 -9.5 6.066406 -9.796875 6.046875 -10.078125 C 6.046875 -10.546875 6.039062 -11.003906 6.03125 -11.453125 C 6.019531 -11.910156 6.003906 -12.367188 5.984375 -12.828125 C 5.984375 -13.003906 5.984375 -13.191406 5.984375 -13.390625 C 5.984375 -13.585938 5.984375 -13.773438 5.984375 -13.953125 C 5.960938 -14.265625 5.945312 -14.566406 5.9375 -14.859375 C 5.925781 -15.160156 5.921875 -15.453125 5.921875 -15.734375 C 5.921875 -15.867188 5.921875 -16 5.921875 -16.125 C 5.921875 -16.257812 5.921875 -16.40625 5.921875 -16.5625 C 5.921875 -16.65625 5.925781 -16.742188 5.9375 -16.828125 C 5.945312 -16.921875 5.953125 -17.007812 5.953125 -17.09375 C 5.929688 -17.53125 5.921875 -17.96875 5.921875 -18.40625 C 5.921875 -18.851562 5.921875 -19.285156 5.921875 -19.703125 C 5.921875 -20.453125 5.953125 -21.171875 6.015625 -21.859375 C 6.015625 -22.234375 6.113281 -22.582031 6.3125 -22.90625 C 6.425781 -23.101562 6.582031 -23.21875 6.78125 -23.25 C 7.019531 -23.332031 7.285156 -23.375 7.578125 -23.375 C 7.722656 -23.351562 7.867188 -23.347656 8.015625 -23.359375 C 8.160156 -23.367188 8.300781 -23.363281 8.4375 -23.34375 C 8.582031 -23.320312 8.734375 -23.300781 8.890625 -23.28125 C 9.046875 -23.257812 9.203125 -23.222656 9.359375 -23.171875 C 9.617188 -23.109375 9.757812 -22.945312 9.78125 -22.6875 C 9.800781 -22.59375 9.820312 -22.503906 9.84375 -22.421875 C 9.875 -22.347656 9.890625 -22.257812 9.890625 -22.15625 C 9.890625 -21.84375 9.894531 -21.523438 9.90625 -21.203125 C 9.914062 -20.890625 9.921875 -20.578125 9.921875 -20.265625 C 9.921875 -19.734375 9.914062 -19.203125 9.90625 -18.671875 C 9.894531 -18.148438 9.898438 -17.613281 9.921875 -17.0625 C 9.941406 -16.46875 9.960938 -15.851562 9.984375 -15.21875 C 10.003906 -14.59375 10.023438 -13.875 10.046875 -13.0625 Z M 10.046875 -13.0625 "/></g></g></g><g fill="#38b6ff" fill-opacity="1"><g transform="translate(12.253174, 32.038217)"><g><path d="M 8.65625 -23.203125 C 9.125 -23.203125 9.566406 -23.140625 9.984375 -23.015625 C 10.378906 -22.921875 10.757812 -22.796875 11.125 -22.640625 C 11.488281 -22.492188 11.835938 -22.296875 12.171875 -22.046875 C 12.410156 -21.898438 12.640625 -21.738281 12.859375 -21.5625 C 13.078125 -21.382812 13.285156 -21.171875 13.484375 -20.921875 C 13.554688 -20.835938 13.617188 -20.75 13.671875 -20.65625 C 13.722656 -20.570312 13.757812 -20.472656 13.78125 -20.359375 C 13.851562 -19.941406 13.851562 -19.535156 13.78125 -19.140625 C 13.757812 -18.984375 13.71875 -18.835938 13.65625 -18.703125 C 13.59375 -18.578125 13.515625 -18.457031 13.421875 -18.34375 C 13.265625 -18.164062 13.109375 -17.992188 12.953125 -17.828125 C 12.804688 -17.671875 12.617188 -17.554688 12.390625 -17.484375 C 11.992188 -17.304688 11.585938 -17.273438 11.171875 -17.390625 C 10.972656 -17.453125 10.804688 -17.550781 10.671875 -17.6875 C 10.429688 -17.863281 10.171875 -17.992188 9.890625 -18.078125 C 9.617188 -18.171875 9.34375 -18.226562 9.0625 -18.25 C 8.59375 -18.289062 8.128906 -18.289062 7.671875 -18.25 C 7.472656 -18.25 7.296875 -18.203125 7.140625 -18.109375 C 6.984375 -18.023438 6.84375 -17.914062 6.71875 -17.78125 C 6.625 -17.695312 6.539062 -17.609375 6.46875 -17.515625 C 6.40625 -17.429688 6.332031 -17.332031 6.25 -17.21875 C 6.207031 -17.15625 6.179688 -17.082031 6.171875 -17 C 6.160156 -16.925781 6.140625 -16.847656 6.109375 -16.765625 C 6.066406 -16.390625 6.125 -16.054688 6.28125 -15.765625 C 6.414062 -15.484375 6.601562 -15.253906 6.84375 -15.078125 C 7.175781 -14.816406 7.523438 -14.570312 7.890625 -14.34375 C 8.253906 -14.125 8.625 -13.914062 9 -13.71875 C 9.164062 -13.632812 9.347656 -13.550781 9.546875 -13.46875 C 9.753906 -13.394531 9.941406 -13.3125 10.109375 -13.21875 C 10.484375 -13.039062 10.847656 -12.851562 11.203125 -12.65625 C 11.554688 -12.457031 11.890625 -12.226562 12.203125 -11.96875 C 12.378906 -11.832031 12.535156 -11.691406 12.671875 -11.546875 C 12.816406 -11.410156 12.96875 -11.273438 13.125 -11.140625 C 13.4375 -10.921875 13.6875 -10.65625 13.875 -10.34375 C 14.0625 -10.039062 14.226562 -9.722656 14.375 -9.390625 C 14.75 -8.378906 14.90625 -7.363281 14.84375 -6.34375 C 14.800781 -5.664062 14.675781 -5.015625 14.46875 -4.390625 C 14.257812 -3.773438 13.941406 -3.179688 13.515625 -2.609375 C 13.316406 -2.347656 13.117188 -2.085938 12.921875 -1.828125 C 12.722656 -1.578125 12.492188 -1.34375 12.234375 -1.125 C 11.898438 -0.882812 11.554688 -0.644531 11.203125 -0.40625 C 10.847656 -0.175781 10.472656 0.015625 10.078125 0.171875 C 9.929688 0.234375 9.765625 0.28125 9.578125 0.3125 C 9.390625 0.34375 9.207031 0.382812 9.03125 0.4375 C 8.34375 0.5625 7.613281 0.570312 6.84375 0.46875 C 6.625 0.414062 6.40625 0.367188 6.1875 0.328125 C 5.96875 0.285156 5.753906 0.242188 5.546875 0.203125 C 5.203125 0.0859375 4.863281 -0.046875 4.53125 -0.203125 C 4.195312 -0.359375 3.878906 -0.546875 3.578125 -0.765625 C 3.503906 -0.804688 3.425781 -0.851562 3.34375 -0.90625 C 3.269531 -0.957031 3.203125 -1.007812 3.140625 -1.0625 C 2.503906 -1.457031 2.007812 -1.960938 1.65625 -2.578125 C 1.476562 -2.890625 1.382812 -3.203125 1.375 -3.515625 C 1.363281 -3.835938 1.398438 -4.175781 1.484375 -4.53125 C 1.554688 -4.84375 1.675781 -5.0625 1.84375 -5.1875 C 1.976562 -5.320312 2.117188 -5.453125 2.265625 -5.578125 C 2.410156 -5.710938 2.5625 -5.847656 2.71875 -5.984375 C 2.84375 -6.117188 2.988281 -6.195312 3.15625 -6.21875 C 3.320312 -6.238281 3.484375 -6.226562 3.640625 -6.1875 C 3.960938 -6.113281 4.257812 -5.976562 4.53125 -5.78125 C 4.707031 -5.65625 4.882812 -5.519531 5.0625 -5.375 C 5.238281 -5.226562 5.414062 -5.101562 5.59375 -5 C 5.875 -4.820312 6.171875 -4.675781 6.484375 -4.5625 C 6.804688 -4.445312 7.125 -4.347656 7.4375 -4.265625 C 7.675781 -4.203125 7.921875 -4.195312 8.171875 -4.25 C 8.429688 -4.300781 8.671875 -4.375 8.890625 -4.46875 C 9.128906 -4.570312 9.351562 -4.703125 9.5625 -4.859375 C 9.78125 -5.015625 9.953125 -5.222656 10.078125 -5.484375 C 10.148438 -5.617188 10.1875 -5.742188 10.1875 -5.859375 C 10.25 -6.203125 10.210938 -6.539062 10.078125 -6.875 C 9.972656 -7.144531 9.785156 -7.390625 9.515625 -7.609375 C 9.140625 -7.890625 8.757812 -8.15625 8.375 -8.40625 C 7.988281 -8.664062 7.578125 -8.875 7.140625 -9.03125 C 6.765625 -9.207031 6.394531 -9.378906 6.03125 -9.546875 C 5.664062 -9.722656 5.296875 -9.910156 4.921875 -10.109375 C 4.742188 -10.222656 4.566406 -10.351562 4.390625 -10.5 C 4.210938 -10.644531 4.039062 -10.78125 3.875 -10.90625 C 3.71875 -11.039062 3.5625 -11.175781 3.40625 -11.3125 C 3.25 -11.457031 3.09375 -11.597656 2.9375 -11.734375 C 2.738281 -11.910156 2.566406 -12.113281 2.421875 -12.34375 C 2.285156 -12.582031 2.160156 -12.820312 2.046875 -13.0625 C 1.867188 -13.457031 1.75 -13.820312 1.6875 -14.15625 C 1.59375 -14.570312 1.523438 -15.019531 1.484375 -15.5 C 1.421875 -16.625 1.628906 -17.738281 2.109375 -18.84375 C 2.265625 -19.195312 2.453125 -19.523438 2.671875 -19.828125 C 2.898438 -20.140625 3.125 -20.453125 3.34375 -20.765625 C 3.582031 -21.097656 3.859375 -21.378906 4.171875 -21.609375 C 4.492188 -21.835938 4.820312 -22.0625 5.15625 -22.28125 C 5.269531 -22.351562 5.378906 -22.414062 5.484375 -22.46875 C 5.597656 -22.519531 5.695312 -22.566406 5.78125 -22.609375 C 6.070312 -22.785156 6.375 -22.90625 6.6875 -22.96875 C 7.007812 -23.039062 7.335938 -23.097656 7.671875 -23.140625 C 7.847656 -23.160156 8.019531 -23.171875 8.1875 -23.171875 C 8.351562 -23.171875 8.507812 -23.179688 8.65625 -23.203125 Z M 8.65625 -23.203125 "/></g></g></g></g></g></svg>